# xmcd
#
# Track frame offsets:
#	150
#	4113
#	20814
#	35578
#	49719
#	59590
#	80010
#	96602
#	104350
#	114923
#	130606
#	144710
#	161214
#	179969
#	194873
#
# Disc length: 2813 seconds
#
# Revision: 1
# Processed by: cddbd v1.5.1PL0 Copyright (c) Steve Scherf et al.
# Submitted via: audiograbber 1.81.02
#
DISCID=e60afb0f
DTITLE=Mary McKee and The Genesis - simply... Mary McKee and The Genesis - By The R
DTITLE=ivers Of Babylon - CD1 (www.gerth.de)
DYEAR=2005
DGENRE=Gospel
TTITLE0=By The Rivers Of Babylon
TTITLE1=He Came A Long Way
TTITLE2=Life Is For Living
TTITLE3=He Came In Love
TTITLE4=Book Of Life
TTITLE5=Just One Look
TTITLE6=Signs Of The Times
TTITLE7=Which Way's The Light
TTITLE8=Hold My Hand
TTITLE9=Guess Who Moved
TTITLE10=Help Me
TTITLE11=Heavensong
TTITLE12=I Am Loved
TTITLE13=Step Across The Line
TTITLE14=He Was There All The Time
EXTD=
EXTT0=
EXTT1=
EXTT2=
EXTT3=
EXTT4=
EXTT5=
EXTT6=
EXTT7=
EXTT8=
EXTT9=
EXTT10=
EXTT11=
EXTT12=
EXTT13=
EXTT14=
PLAYORDER=
